<?xml version="1.0" encoding="UTF-8"?>
<!DOCTYPE svg PUBLIC "-//W3C//DTD SVG 1.1//EN" "http://www.w3.org/Graphics/SVG/1.1/DTD/svg11.dtd">
<!-- Creator: CorelDRAW X7 -->
<svg xmlns="http://www.w3.org/2000/svg" xml:space="preserve" width="57.7545mm" height="22.2575mm" version="1.1" style="shape-rendering:geometricPrecision; text-rendering:geometricPrecision; image-rendering:optimizeQuality; fill-rule:evenodd; clip-rule:evenodd"
viewBox="0 0 5305 2045"
 xmlns:xlink="http://www.w3.org/1999/xlink">
 <defs>
  <style type="text/css">
   <![CDATA[
    .fil1 {fill:#BDBFC1}
    .fil0 {fill:#BDBFC1;fill-rule:nonzero}
   ]]>
  </style>
 </defs>
 <g id="Camada_x0020_1">
  <metadata id="CorelCorpID_0Corel-Layer"/>
  <g id="_2729540843760">
   <path class="fil0" d="M1715 1461l0 -971 -166 0 0 -18c58,0 116,0 174,0 59,0 116,0 174,0l0 18 -165 0 0 971 178 0 0 18c-62,0 -124,0 -187,0 -63,0 -126,0 -189,0l0 -18 181 0zm160 -135l0 -705 140 0c0,-35 0,-68 0,-98 0,-30 0,-59 0,-89 0,-29 0,-61 0,-97 -98,0 -195,0 -292,0 -97,0 -194,0 -292,0 0,36 0,68 0,97 0,30 0,59 0,89 0,30 0,63 0,98l141 0 0 705 -153 0c0,27 0,52 0,75 0,23 0,45 0,67 0,22 0,44 0,68 0,23 0,49 0,76 102,0 203,0 304,0 101,0 202,0 304,0 0,-27 0,-53 0,-76 0,-24 0,-46 0,-68 0,-22 0,-44 0,-67 0,-23 0,-48 0,-75l-152 0z"/>
   <path class="fil0" d="M3011 1612l110 0 0 -1275c-105,0 -209,0 -314,0l0 624 -606 -629 -111 0 0 1280c52,0 105,0 158,0 53,0 106,0 159,0l0 -626 604 626zm-775 -1018l19 0c57,59 114,119 171,178 57,60 114,120 169,180 61,60 121,121 180,183 60,63 120,125 180,188l0 -862 18 0 0 893 -13 0c-59,-61 -118,-121 -175,-181 -58,-59 -115,-119 -173,-179 -58,-61 -117,-123 -176,-185 -60,-62 -120,-123 -180,-184l0 860 -20 0 0 -891z"/>
   <path class="fil0" d="M3466 1223c-34,0 -68,0 -100,0 -32,0 -64,0 -96,0 -33,0 -66,0 -100,0 0,62 11,117 32,165 21,49 50,90 88,124 37,34 80,61 128,82 49,20 100,33 153,40 54,7 108,7 162,0 54,-7 105,-21 153,-41 49,-20 92,-47 130,-80 38,-34 68,-74 90,-121 21,-46 33,-99 33,-159 0,-63 -9,-116 -26,-159 -17,-42 -41,-77 -71,-104 -30,-26 -65,-47 -105,-62 -40,-15 -83,-26 -128,-34 -46,-8 -93,-14 -141,-19 -27,-3 -52,-7 -76,-13 -23,-4 -44,-11 -62,-21 -17,-9 -31,-21 -40,-37 -9,-15 -13,-35 -12,-59 2,-21 9,-40 22,-56 13,-16 29,-29 49,-39 20,-10 41,-16 64,-20 24,-4 47,-4 70,-1 23,3 44,9 64,19 19,9 34,23 46,40 11,16 17,37 17,61 35,0 68,0 98,0 31,0 62,0 93,0 31,0 65,0 100,0 1,-61 -9,-115 -30,-163 -20,-47 -48,-88 -83,-122 -36,-34 -77,-61 -123,-82 -46,-20 -94,-34 -145,-40 -51,-7 -102,-7 -153,0 -52,6 -100,20 -146,40 -46,21 -86,48 -121,82 -36,34 -64,75 -84,122 -20,48 -29,102 -29,163 2,69 12,127 33,175 21,48 50,87 89,117 38,30 83,53 136,69 53,16 112,26 177,31 30,1 59,4 85,7 26,4 50,10 70,17 20,8 35,19 47,33 11,14 17,31 17,54 0,21 -7,39 -21,55 -13,15 -31,27 -53,37 -22,9 -47,15 -73,18 -27,3 -54,3 -80,-1 -27,-3 -51,-10 -73,-20 -22,-10 -40,-23 -54,-39 -13,-17 -20,-36 -21,-59zm451 -611c-19,-32 -43,-59 -73,-80 -29,-21 -62,-36 -97,-46 -36,-10 -73,-14 -111,-13 -37,1 -73,7 -108,18 -35,12 -66,28 -94,50 -28,22 -50,48 -66,80 -17,31 -25,67 -25,108 0,51 8,91 24,123 16,31 38,55 67,72 28,16 60,28 97,36 37,7 76,12 119,15 35,3 69,6 103,10 34,5 65,12 94,21 30,10 56,24 78,42 22,18 40,42 53,72 12,29 19,67 19,112 -1,44 -11,83 -30,117 -19,33 -46,62 -79,85 -33,23 -70,40 -111,52 -41,12 -83,18 -127,18 -44,0 -85,-6 -126,-18 -41,-12 -77,-30 -109,-55 -32,-24 -57,-55 -75,-92l20 0c20,33 46,60 77,82 32,21 66,37 105,47 38,10 78,15 118,15 41,-1 80,-7 118,-18 37,-11 71,-27 101,-48 30,-21 54,-48 72,-79 18,-30 27,-66 27,-106 0,-44 -6,-80 -18,-108 -13,-29 -29,-51 -51,-67 -21,-17 -46,-29 -74,-37 -28,-8 -58,-14 -90,-17 -33,-3 -65,-6 -99,-8 -44,-3 -85,-9 -123,-17 -39,-8 -73,-21 -102,-40 -30,-18 -53,-44 -70,-77 -18,-34 -27,-78 -28,-132 -1,-44 8,-83 25,-117 17,-34 41,-62 71,-86 31,-23 65,-41 103,-53 38,-12 77,-19 118,-19 41,-1 81,4 119,15 39,12 74,29 105,53 31,24 56,54 75,90l-22 0z"/>
   <path class="fil0" d="M4680 547l2 0 325 741 -649 0 322 -741zm308 1065l300 0 0 -47 -541 -1244 -132 0 -539 1244 0 47 299 0 70 -160 473 0 70 160zm127 -124l-22 0 -79 -180 -663 0 -80 180 -22 0 426 -981 10 0 430 981zm-435 -622l-123 293 250 0 -127 -293z"/>
   <path class="fil0" d="M63 2006l-16 0 0 35 68 0 0 -35 -16 0 0 -127 16 0 0 -35 -68 0 0 35 16 0 0 127zm84 35l67 0 0 -35 -16 0 0 -128 72 163 61 0 0 -162 16 0 0 -35 -68 0 0 35 16 0 0 128 -71 -163 -77 0 0 35 16 0 0 127 -16 0 0 35zm309 -115c-9,-3 -17,-5 -24,-8 -6,-2 -11,-4 -15,-6 -4,-2 -6,-4 -8,-7 -2,-2 -3,-5 -3,-8 1,-4 1,-7 3,-10 2,-2 5,-4 8,-6 3,-2 7,-3 11,-3 4,-1 9,-1 13,-1 7,0 13,0 19,1 6,1 10,2 15,4 4,2 7,3 10,5 3,1 5,2 6,3 2,1 3,2 3,2l0 -38c0,0 -1,-1 -4,-2 -2,-1 -5,-3 -9,-4 -5,-2 -10,-3 -17,-5 -7,-1 -15,-1 -24,-1 -11,0 -20,1 -29,3 -8,3 -16,6 -22,11 -7,5 -12,11 -15,19 -4,7 -6,15 -6,25 0,8 1,16 3,22 2,6 5,12 10,16 4,5 10,8 16,12 7,3 15,6 24,8 9,3 17,5 24,7 6,3 11,5 15,7 3,2 6,4 8,6 1,3 2,5 2,9 0,4 -1,8 -3,11 -3,3 -7,6 -13,8 -5,1 -13,2 -23,2 -7,0 -14,0 -20,-2 -6,-1 -11,-3 -16,-5 -5,-2 -9,-4 -12,-6 -4,-2 -6,-3 -8,-5 -2,-1 -3,-2 -3,-2l0 40c0,0 1,1 3,2 1,1 4,2 7,4 4,1 8,3 12,4 5,2 11,3 17,4 6,1 13,1 21,1 13,0 24,-1 34,-4 10,-3 18,-7 24,-12 6,-6 11,-12 14,-19 3,-7 5,-16 5,-24 0,-9 -1,-16 -3,-22 -3,-6 -6,-12 -10,-16 -4,-5 -10,-9 -16,-12 -7,-3 -15,-6 -24,-8zm108 80l0 35 68 0 0 -35 -16 0 0 -127 61 0 0 -35 -158 0 0 35 61 0 0 127 -16 0zm149 0l-16 0 0 35 68 0 0 -35 -16 0 0 -127 16 0 0 -35 -68 0 0 35 16 0 0 127zm117 0l0 35 68 0 0 -35 -16 0 0 -127 61 0 0 -35 -158 0 0 35 61 0 0 127 -16 0zm306 -127l16 0 0 -35 -68 0 0 35 16 0 0 76c0,13 -2,23 -5,31 -4,8 -9,13 -16,17 -6,4 -14,6 -24,6 -9,0 -18,-2 -24,-6 -7,-4 -12,-10 -16,-18 -4,-8 -5,-19 -6,-32l0 -74 16 0 0 -35 -68 0 0 35 16 0 0 80c0,15 2,28 6,39 4,11 10,20 17,27 7,6 16,11 26,15 10,3 21,4 33,4 12,0 23,-1 33,-4 10,-4 19,-9 26,-16 7,-7 13,-16 16,-27 4,-11 6,-24 6,-40l0 -78zm76 127l0 35 68 0 0 -35 -16 0 0 -127 61 0 0 -35 -158 0 0 35 61 0 0 127 -16 0zm214 -129c9,0 18,2 25,5 7,3 13,8 18,14 5,6 8,12 11,20 3,8 4,17 4,27 0,10 -1,18 -4,26 -2,8 -6,15 -11,21 -5,6 -11,11 -18,14 -7,3 -15,5 -24,5 -9,0 -17,-2 -24,-5 -7,-3 -13,-8 -18,-14 -5,-5 -9,-12 -12,-20 -2,-8 -4,-17 -4,-27 0,-9 2,-18 4,-26 3,-8 7,-15 11,-21 5,-6 11,-11 18,-14 7,-3 15,-5 24,-5zm0 168c15,0 28,-3 40,-8 11,-5 21,-12 30,-21 8,-9 15,-20 19,-32 5,-13 7,-26 7,-42 0,-15 -2,-29 -7,-41 -4,-12 -11,-23 -19,-32 -8,-9 -18,-16 -30,-20 -12,-5 -25,-7 -39,-7 -15,0 -28,2 -39,7 -12,5 -22,12 -30,21 -9,9 -15,20 -20,32 -4,13 -7,27 -7,42 0,15 3,29 7,41 5,12 11,23 19,32 9,9 19,16 30,20 12,5 25,8 39,8zm191 -4l67 0 0 -35 -16 0 0 -128 72 163 61 0 0 -162 16 0 0 -35 -68 0 0 35 16 0 0 128 -71 -163 -77 0 0 35 16 0 0 127 -16 0 0 35zm370 0l47 0 0 -35 -18 0 -56 -162 -54 0 -56 162 -18 0 0 35 46 0 17 -51 75 0 17 51zm-54 -163l26 78 -53 0 27 -78zm271 109c0,0 -1,1 -2,2 -2,1 -4,3 -7,5 -3,2 -7,4 -12,6 -5,2 -11,4 -18,6 -7,1 -14,2 -23,2 -8,0 -16,-2 -23,-4 -8,-3 -14,-7 -20,-12 -6,-6 -10,-13 -13,-21 -4,-8 -5,-17 -5,-28 0,-10 1,-19 4,-27 3,-8 8,-15 13,-21 6,-6 12,-10 20,-13 8,-3 16,-5 25,-5 8,1 16,1 22,3 7,1 13,3 18,5 4,3 8,5 12,7 3,2 5,4 7,6 1,1 2,2 2,2l0 -41c0,0 -1,-1 -3,-2 -1,-1 -4,-3 -7,-4 -4,-2 -8,-4 -13,-6 -5,-1 -11,-3 -17,-4 -7,-1 -14,-2 -22,-2 -14,0 -28,3 -40,8 -12,5 -23,12 -32,21 -9,9 -15,20 -20,32 -5,12 -8,26 -8,41 0,13 2,24 5,35 3,11 8,20 14,28 6,9 13,15 21,21 8,6 17,10 27,13 9,3 20,4 31,4 9,0 16,0 23,-1 7,-2 13,-3 18,-5 5,-1 9,-3 13,-5 3,-1 6,-3 8,-4 1,-1 2,-2 2,-2l0 -40zm45 19l-16 0 0 35 68 0 0 -35 -16 0 0 -127 16 0 0 -35 -68 0 0 35 16 0 0 127zm174 -129c9,0 17,2 24,5 7,3 13,8 18,14 5,6 9,12 11,20 3,8 4,17 4,27 0,10 -1,18 -4,26 -2,8 -6,15 -11,21 -5,6 -11,11 -18,14 -7,3 -15,5 -24,5 -9,0 -17,-2 -24,-5 -7,-3 -13,-8 -18,-14 -5,-5 -9,-12 -12,-20 -2,-8 -3,-17 -3,-27 0,-9 1,-18 3,-26 3,-8 7,-15 12,-21 4,-6 10,-11 17,-14 8,-3 16,-5 25,-5zm0 168c14,0 27,-3 39,-8 11,-5 22,-12 30,-21 8,-9 15,-20 19,-32 5,-13 7,-26 7,-42 0,-15 -2,-29 -7,-41 -4,-12 -11,-23 -19,-32 -8,-9 -18,-16 -30,-20 -11,-5 -25,-7 -39,-7 -14,0 -27,2 -39,7 -12,5 -22,12 -30,21 -9,9 -15,20 -20,32 -4,13 -6,27 -7,42 1,15 3,29 7,41 5,12 11,23 20,32 8,9 18,16 29,20 12,5 25,8 40,8zm122 -4l67 0 0 -35 -16 0 0 -128 71 163 61 0 0 -162 16 0 0 -35 -67 0 0 35 16 0 0 128 -72 -163 -76 0 0 35 15 0 0 127 -15 0 0 35zm370 0l46 0 0 -35 -17 0 -56 -162 -55 0 -56 162 -17 0 0 35 45 0 17 -51 76 0 17 51zm-55 -163l27 78 -54 0 27 -78zm136 128l-16 0 0 35 147 0 0 -35 -95 0 0 -127 16 0 0 -35 -68 0 0 35 16 0 0 127zm272 -127c0,0 1,0 3,0 2,0 5,0 9,0 3,0 7,0 11,0 4,0 8,0 12,0 13,0 25,2 34,8 9,5 16,12 21,21 5,10 7,21 7,34 0,13 -2,24 -7,34 -4,10 -11,17 -20,23 -10,5 -21,8 -35,8 -4,0 -8,0 -12,0 -4,0 -8,0 -11,-1 -4,0 -7,0 -9,0 -2,0 -3,0 -3,0l0 -127zm32 162c22,0 42,-4 57,-12 15,-8 27,-19 34,-34 8,-15 12,-33 12,-54 0,-16 -2,-30 -7,-42 -4,-12 -11,-22 -20,-30 -8,-8 -19,-14 -31,-18 -12,-5 -26,-7 -42,-7 -8,0 -15,0 -22,0 -6,0 -12,0 -18,1 -5,0 -10,0 -15,0 -5,0 -10,0 -16,0 -5,0 -10,0 -16,0l0 34 16 0 0 127 -16 0 0 35c6,0 11,0 16,0 5,0 10,0 14,0 5,0 10,0 15,0 5,0 11,0 17,0 7,0 14,0 22,0zm217 -164c9,0 17,2 24,5 7,3 13,8 18,14 5,6 9,12 11,20 3,8 4,17 4,27 0,10 -1,18 -4,26 -2,8 -6,15 -11,21 -5,6 -11,11 -18,14 -7,3 -15,5 -24,5 -9,0 -17,-2 -24,-5 -7,-3 -13,-8 -18,-14 -5,-5 -9,-12 -11,-20 -3,-8 -4,-17 -4,-27 0,-9 1,-18 3,-26 3,-8 7,-15 12,-21 5,-6 11,-11 18,-14 7,-3 15,-5 24,-5zm0 168c14,0 27,-3 39,-8 12,-5 22,-12 30,-21 8,-9 15,-20 19,-32 5,-13 7,-26 7,-42 0,-15 -2,-29 -7,-41 -4,-12 -11,-23 -19,-32 -8,-9 -18,-16 -30,-20 -11,-5 -24,-7 -39,-7 -14,0 -27,2 -39,7 -12,5 -22,12 -30,21 -9,9 -15,20 -20,32 -4,13 -6,27 -6,42 0,15 2,29 6,41 5,12 11,23 20,32 8,9 18,16 30,20 11,5 24,8 39,8zm272 -119c-10,-3 -18,-5 -24,-8 -7,-2 -12,-4 -15,-6 -4,-2 -7,-4 -9,-7 -1,-2 -2,-5 -2,-8 0,-4 1,-7 3,-10 2,-2 4,-4 8,-6 3,-2 6,-3 11,-3 4,-1 8,-1 13,-1 6,0 13,0 18,1 6,1 11,2 15,4 4,2 8,3 11,5 2,1 5,2 6,3 1,1 2,2 2,2l0 -38c0,0 -1,-1 -3,-2 -2,-1 -5,-3 -10,-4 -4,-2 -10,-3 -16,-5 -7,-1 -15,-1 -25,-1 -10,0 -20,1 -28,3 -9,3 -16,6 -23,11 -6,5 -11,11 -15,19 -3,7 -5,15 -5,25 0,8 1,16 3,22 2,6 5,12 9,16 5,5 10,8 17,12 6,3 14,6 23,8 10,3 18,5 24,7 6,3 12,5 15,7 4,2 7,4 8,6 2,3 3,5 3,9 0,4 -2,8 -4,11 -2,3 -6,6 -12,8 -6,1 -14,2 -24,2 -7,0 -13,0 -19,-2 -6,-1 -12,-3 -16,-5 -5,-2 -9,-4 -13,-6 -3,-2 -6,-3 -8,-5 -1,-1 -2,-2 -2,-2l0 40c0,0 1,1 2,2 2,1 4,2 8,4 3,1 7,3 12,4 5,2 10,3 16,4 7,1 14,1 21,1 13,0 25,-1 34,-4 10,-3 18,-7 24,-12 7,-6 11,-12 15,-19 3,-7 4,-16 4,-24 0,-9 -1,-16 -3,-22 -2,-6 -5,-12 -9,-16 -5,-5 -10,-9 -17,-12 -6,-3 -14,-6 -23,-8zm93 80l-16 0 0 35 154 0 0 -35 -102 0 0 -47 96 0 0 -34 -96 0 0 -46 101 0 0 -35 -153 0 0 35 16 0 0 127zm386 -162l-73 0 -37 92 -36 -92 -75 0 0 35 16 0 0 127 -16 0 0 35 68 0 0 -35 -16 0 0 -127 37 90 42 0 38 -90 0 127 -16 0 0 35 68 0 0 -35 -16 0 0 -127 16 0 0 -35zm47 162l-16 0 0 35 68 0 0 -35 -16 0 0 -127 16 0 0 -35 -68 0 0 35 16 0 0 127zm227 35l46 0 0 -35 -17 0 -56 -162 -55 0 -56 162 -17 0 0 35 45 0 17 -51 76 0 17 51zm-55 -163l27 78 -54 0 27 -78zm49 -89l-51 0 -17 36 34 0 34 -36zm201 252l44 0 0 -35 -19 0 -28 -45c0,0 1,-1 2,-1 2,0 5,-1 7,-3 3,-1 6,-3 10,-5 3,-3 6,-6 9,-10 3,-4 5,-9 7,-15 2,-6 3,-14 3,-22 0,-20 -6,-36 -18,-46 -12,-10 -30,-15 -53,-15 -9,0 -18,0 -26,0 -8,0 -16,0 -23,0 -8,1 -15,1 -22,1 -8,0 -15,0 -22,0l0 34 15 0 0 127 -15 0 0 35 67 0 0 -35 -15 0 0 -39 13 0c2,0 4,0 6,0 2,0 5,0 7,0 3,0 4,0 6,0 2,0 2,0 2,0l43 74zm-77 -108l0 -54 39 0c12,-1 22,2 28,6 5,4 8,11 8,20 0,9 -2,16 -8,21 -6,4 -16,7 -28,7l-39 0zm165 73l-15 0 0 35 67 0 0 -35 -15 0 0 -127 15 0 0 -35 -67 0 0 35 15 0 0 127zm136 -127c0,0 1,0 3,0 2,0 5,0 9,0 3,0 7,0 11,0 4,0 8,0 12,0 14,0 25,2 34,8 10,5 17,12 21,21 5,10 7,21 7,34 0,13 -2,24 -7,34 -4,10 -11,17 -20,23 -10,5 -21,8 -35,8 -4,0 -8,0 -12,0 -4,0 -8,0 -11,-1 -4,0 -7,0 -9,0 -2,0 -3,0 -3,0l0 -127zm32 162c23,0 42,-4 57,-12 15,-8 27,-19 35,-34 7,-15 11,-33 11,-54 0,-16 -2,-30 -7,-42 -4,-12 -11,-22 -19,-30 -9,-8 -20,-14 -32,-18 -12,-5 -26,-7 -42,-7 -8,0 -15,0 -22,0 -6,0 -12,0 -18,1 -5,0 -10,0 -15,0 -5,0 -10,0 -15,0 -6,0 -11,0 -17,0l0 34 16 0 0 127 -16 0 0 35c6,0 11,0 16,0 5,0 10,0 15,0 4,0 9,0 14,0 5,0 11,0 17,0 7,0 14,0 22,0zm217 -164c9,0 17,2 24,5 7,3 13,8 18,14 5,6 9,12 11,20 3,8 4,17 4,27 0,10 -1,18 -4,26 -2,8 -6,15 -11,21 -5,6 -11,11 -18,14 -7,3 -15,5 -24,5 -9,0 -17,-2 -24,-5 -7,-3 -13,-8 -18,-14 -5,-5 -9,-12 -11,-20 -3,-8 -4,-17 -4,-27 0,-9 1,-18 4,-26 2,-8 6,-15 11,-21 5,-6 11,-11 18,-14 7,-3 15,-5 24,-5zm0 168c14,0 27,-3 39,-8 12,-5 22,-12 30,-21 9,-9 15,-20 20,-32 4,-13 6,-26 6,-42 0,-15 -2,-29 -6,-41 -5,-12 -11,-23 -20,-32 -8,-9 -18,-16 -30,-20 -11,-5 -24,-7 -39,-7 -14,0 -27,2 -39,7 -12,5 -22,12 -30,21 -8,9 -15,20 -19,32 -5,13 -7,27 -7,42 0,15 2,29 7,41 4,12 10,23 19,32 8,9 18,16 30,20 11,5 24,8 39,8z"/>
   <path class="fil1" d="M592 877c-11,1 -23,3 -33,7 -8,4 -15,9 -19,18l0 0c-7,15 -2,27 4,39l0 0 0 1 0 0c1,1 7,0 15,1 10,1 21,1 25,1 7,0 16,-5 22,-11 3,-3 6,-6 8,-10 -2,-8 -2,-16 2,-26 0,-4 -2,-7 -6,-14l0 -1c0,0 -5,-2 -10,-5l-2 0 -6 0zm46 37l0 0c0,3 -1,7 -2,10 1,3 3,6 4,9l0 1 1 0 0 0c0,2 4,-1 10,0 8,0 17,0 20,0 6,0 12,-3 17,-8 4,-4 7,-9 7,-14l1 0 0 -6 0 0c0,-8 0,-10 -5,-18l0 -1 -1 0c0,0 -3,-1 -7,-3l-1 0 -4 0c-9,1 -19,3 -26,6l0 0c-6,2 -11,6 -14,12l0 4 0 8zm-45 54c-10,1 -19,2 -27,6l0 0c-7,2 -13,7 -16,14l0 0c-6,12 -1,22 3,32l0 0 1 1 0 0c0,1 5,-1 11,-1 8,1 18,1 21,1 6,0 12,-3 18,-8 5,-5 8,-11 8,-15l0 0 0 -7 0 0c0,-8 0,-10 -5,-19l0 -1c-1,0 -4,-1 -8,-3l-1 -1 -5 1zm8 91c-9,1 -18,2 -26,5l0 0c-6,3 -12,7 -15,14l0 0c-5,11 -1,20 3,30l0 0 1 1 0 0c0,1 4,-2 10,-1 8,1 18,1 21,1 5,0 11,-4 16,-8 3,-3 5,-6 6,-9 -2,-8 -4,-16 -1,-26l-2 -4 0 0 0 -1c-1,0 -3,0 -7,-2l-1 -1 -5 1zm39 28l0 0c0,1 0,3 0,4l2 5 0 1 0 0c1,2 5,-1 10,-1 9,1 18,1 21,1 5,0 12,-3 16,-8 5,-4 8,-10 8,-14l0 0 0 -6 0 0c0,-8 1,-10 -4,-18l-1 -1 0 0c0,-1 -3,-1 -7,-3l-1 0 -4 0c-10,1 -19,2 -26,6l0 0c-6,2 -12,6 -15,12 1,4 1,9 1,15l0 7zm186 -212c-10,1 -19,2 -26,5 -6,3 -10,6 -13,11 1,4 1,7 1,14l0 5 0 0c0,3 -1,6 -2,10l2 4 0 0 0 1 0 0c1,2 5,-1 10,-1 9,1 18,1 21,1 5,0 12,-3 16,-8 5,-4 8,-10 8,-14l0 0 0 -6 0 -1c0,-7 0,-9 -4,-18l-1 0 0 0c0,-1 -3,-1 -7,-3l-1 -1 -4 1zm-63 43c-3,-8 -4,-17 0,-27l-1 -1 0 -1c0,0 -2,0 -5,-1l0 0 -1 -1 -3 1c-8,1 -15,2 -22,4l0 0c-5,2 -9,6 -12,11l0 0c-4,9 0,16 3,24l0 0 1 1 0 0c0,2 3,-2 7,-2 7,1 15,1 17,1 4,0 9,-3 13,-6 1,-1 2,-2 3,-3zm-84 48c-9,1 -19,2 -26,5l0 0c-7,3 -12,7 -15,14 -5,11 -1,20 3,30l0 0 0 1 0 0c1,1 5,-2 11,-1 8,1 17,1 20,1 6,0 12,-4 17,-8 4,-5 7,-10 7,-14l0 0 0 -7 0 0c1,-8 1,-9 -4,-18l-1 -1c0,0 -3,0 -7,-2l-1 -1 -4 1zm38 10c1,1 1,3 1,5l12 24 1 0 0 0 0 1c2,4 8,9 14,11 5,2 11,2 15,0l0 0 5 -3 0 0c6,-3 8,-4 12,-12l1 -1c0,0 -1,-3 -1,-8l0 -1 -3 -4c-5,-8 -10,-16 -17,-21l0 0c-5,-5 -11,-8 -18,-7 -10,0 -16,7 -22,16zm48 65c-9,1 -18,2 -26,5 -6,3 -12,7 -15,14l0 0c-5,11 -1,20 3,30l0 0 1 1 0 0c1,2 4,-1 10,-1 8,1 18,1 21,1 5,0 11,-3 16,-8 5,-4 8,-10 8,-14l0 0 0 -7 0 0c0,-7 0,-9 -5,-18l0 0c0,-1 -3,-1 -7,-3l-1 -1 -5 1zm83 -41c-2,-9 -4,-18 -8,-24 -2,-6 -6,-11 -12,-13 -10,-4 -17,1 -25,6l0 0 -1 0c-1,1 2,4 2,9 1,8 1,17 2,20 0,5 4,11 8,15l0 0c4,4 8,6 12,6l0 0 5 -1 1 0c6,0 7,-1 14,-6l1 0c0,-1 0,-3 1,-7l0 0 0 -1 0 -4zm-231 143c-9,1 -19,2 -27,5l0 0c-7,3 -12,7 -15,15 -6,11 -2,21 3,31l0 0 0 1 0 0c1,2 5,-1 11,0 9,0 18,0 22,0 5,0 12,-3 17,-8 5,-5 8,-10 8,-15l0 0 0 -7 0 0c0,-8 0,-10 -5,-19l0 0c0,-1 -4,-1 -8,-3l0 0 -1 -1 -5 1zm10 85c-10,1 -20,2 -27,5 -7,3 -13,7 -16,15 -6,11 -1,21 3,31l0 0 1 1 0 0c0,2 4,-1 11,0 8,0 18,0 21,0 6,0 12,-3 17,-8 5,-5 8,-10 8,-15l0 0 1 -7 0 0c0,-8 0,-10 -6,-19l0 0c0,-1 -3,-1 -7,-3l-2 -1 -4 1zm10 87c-9,1 -19,3 -27,6l0 0c-7,3 -12,7 -16,14 -5,12 -1,22 4,32l0 0 0 1 0 0c1,1 5,-1 11,-1 9,1 18,1 22,1 5,0 12,-3 17,-8 5,-5 8,-10 8,-15l0 0 0 -7 0 0c0,-8 0,-10 -5,-19l0 -1c0,0 -4,-1 -8,-3l-1 0 -5 0zm9 79c-10,1 -20,3 -28,6l0 0c-6,3 -12,7 -15,14 -6,12 -2,22 3,32l0 1 0 0c1,1 5,-1 11,-1 9,1 18,1 22,1 5,0 12,-3 17,-8 5,-5 8,-11 8,-15l0 0 0 -7 0 0c0,-8 0,-10 -5,-19l0 0 0 -1c0,0 -4,-1 -8,-3l-1 0 -4 0zm-12 93c0,0 0,0 -1,0l0 0c-5,2 -10,10 -14,19 -4,11 -6,23 -5,32 0,1 1,3 1,4 3,9 4,16 5,22l0 0c1,6 2,11 4,17 1,1 2,-1 4,0 8,2 19,3 22,3 6,0 13,-4 18,-9 5,-4 8,-10 8,-15 0,-7 1,-12 2,-15 0,-3 1,-5 -2,-10l-1 -1 0 -1 -1 -2 0 0c-1,-4 -7,-21 -14,-29 -5,-7 -11,-11 -17,-14l0 0c-2,0 -3,-1 -5,-1l-4 0zm652 -1345c5,-10 6,-23 3,-42 -1,-1 -1,-2 -2,-3 -1,-3 -4,-9 -8,-10 -4,3 -10,4 -17,6 -13,4 -34,11 -54,24 -23,16 -48,30 -74,44 -51,27 -105,56 -150,104 -16,17 -24,42 -32,66l0 0c-2,6 -4,13 -6,18 -10,29 -21,59 -35,88 -13,29 -29,57 -48,79 -4,4 -7,9 -11,14l0 0c-28,33 -47,56 -91,60l-8 1c-86,7 -199,17 -257,-110 -6,-16 -12,-33 -18,-51 -9,-26 -18,-53 -30,-75 -16,-26 -35,-49 -56,-70 -21,-20 -44,-37 -69,-51 -73,-39 -169,-49 -225,-55l0 0 -17 -1 0 0 0 0c-4,-1 -10,-1 -16,-1 -12,-1 -27,-2 -41,-4l0 0 0 0c-2,0 -3,1 -4,1l-1 0 -1 1 0 0c-1,0 -1,-2 -1,-2l-1 1c-3,4 -6,8 -7,12l0 0c-2,5 -2,9 -1,12l0 0c1,3 3,6 5,8l0 0c2,2 5,3 7,4 8,4 18,6 28,9l12 1 0 0 8 1 1 0 47 6 0 0c45,6 116,27 174,60 44,24 80,56 92,92 11,33 25,62 38,90 8,17 15,32 22,48l24 60c1,2 10,12 17,21 6,7 12,14 15,19 18,17 44,31 75,41 36,11 77,18 114,20 28,2 49,1 67,-2 19,-3 34,-8 51,-13 8,-4 16,-8 24,-13l0 0c8,-5 15,-10 21,-14l0 0c6,-5 12,-10 18,-16 23,-26 38,-62 59,-111l5 -12c4,-8 8,-18 12,-29 22,-51 50,-119 87,-159 3,-4 6,-7 10,-10 34,-33 79,-55 124,-77 32,-16 63,-32 89,-50l1 -1c2,-1 3,-1 5,-2 12,-9 21,-18 26,-27zm-18 49l-5 4c-28,19 -60,35 -92,51 -44,22 -88,44 -120,74 -1,2 -3,3 -4,5 -34,37 -59,100 -79,148 -5,11 -9,21 -13,30l0 0 -5 11c-23,54 -40,93 -67,122 -7,8 -15,16 -25,23 -7,5 -14,10 -22,15 -9,5 -18,10 -27,14l-1 0c-18,6 -35,11 -54,14 -20,3 -43,4 -71,3 -40,-2 -82,-9 -120,-22 -34,-11 -64,-26 -84,-46l-4 -3 0 -5c0,-2 -5,-5 -12,-12l0 0c-8,-10 -17,-21 -20,-27l-24 -60c-6,-14 -14,-30 -22,-47 -13,-28 -28,-58 -39,-92 -10,-30 -42,-58 -82,-80 -55,-31 -123,-52 -166,-57 -4,-1 -30,-4 -57,-10 -3,-1 -6,-2 -9,-3 -5,0 -10,-1 -14,-2l0 0c-15,-3 -19,3 -21,7l-1 1 0 0c-1,2 -1,6 -1,9l0 0 1 3 0 0c0,5 1,9 3,12 3,5 7,9 10,10l1 0 3 -1 2 -1 3 0 2 0c5,0 7,0 15,2l0 0c18,6 44,13 72,20l5 1 0 0c13,3 22,4 30,6l0 0c41,9 73,17 104,33 54,28 81,103 108,180 26,73 52,146 100,175 20,12 49,23 80,31 35,10 71,16 102,19 42,3 84,3 123,-2l0 0c39,-5 75,-15 105,-35 15,-10 29,-24 42,-40 16,-21 29,-45 38,-64 21,-46 33,-81 42,-109 12,-36 20,-63 42,-89 12,-13 31,-30 52,-46 23,-18 48,-35 68,-47 6,-3 13,-7 21,-11 25,-13 55,-29 76,-49l1 -1c3,-3 5,-6 9,-7 3,-3 5,-6 7,-9 9,-14 11,-24 10,-32 0,-3 -2,-6 -4,-9 -2,-2 -4,-4 -7,-4 -2,-1 -3,-1 -5,-1zm-1185 -36l17 2c57,6 157,16 232,57 27,14 52,33 75,55 22,21 42,46 59,74 14,24 23,52 32,79 6,18 11,35 18,49 51,113 156,104 235,97l0 0 9 -1c35,-3 52,-23 76,-52l0 0c3,-4 6,-9 11,-14 17,-21 32,-47 45,-74 13,-28 24,-58 34,-86 2,-6 4,-12 6,-17l0 0c8,-27 17,-55 37,-75 48,-50 103,-80 155,-109 26,-14 51,-27 73,-42 23,-15 45,-22 60,-27 6,-1 8,1 9,-1l1 -1c5,-10 7,-18 6,-23 0,-6 -3,-12 -5,-16 -6,-12 -20,-11 -24,-10 -51,14 -130,56 -200,101 -74,48 -138,98 -149,121 -7,14 -15,34 -23,56 -28,71 -65,163 -101,175l0 0c-5,2 -11,2 -17,1 -5,-1 -10,-3 -15,-7 -23,-20 -27,-46 -30,-68l0 -3c-1,-8 -2,-28 -3,-60 -1,-45 -4,-112 -9,-203 -1,-10 -1,-21 -1,-33 0,-29 0,-61 -11,-89l0 0c-2,-5 -4,-9 -7,-10l0 0c0,-1 -1,-1 -2,-1l0 0c-1,0 -3,0 -4,1l0 0c-7,3 -15,12 -21,23 -3,5 -4,31 -4,53 0,9 0,17 0,23 -2,33 -1,62 0,88 1,16 1,32 1,46 0,7 1,23 3,44 4,49 10,124 5,167 -4,32 -34,32 -40,32l0 0 0 0 0 0c-49,-1 -70,-66 -87,-121 -5,-15 -9,-30 -14,-42l0 0 -2 -5c-10,-26 -25,-62 -54,-84 -47,-34 -115,-64 -185,-86 -92,-30 -185,-48 -235,-50 -7,-1 -15,1 -23,5 -6,3 -11,7 -14,12 -5,10 0,22 2,27l0 0 1 2 0 0c2,5 16,9 31,13 18,4 37,6 47,7zm689 612c-40,5 -84,5 -128,2 -32,-3 -70,-10 -106,-19 -33,-9 -64,-21 -85,-34 -55,-33 -83,-110 -110,-187 -26,-72 -51,-143 -97,-168 -23,-12 -75,-24 -124,-36l-8 -2 -26 -5 0 0c-22,-5 -48,-9 -63,-13 -8,4 -15,11 -11,29 1,4 3,8 7,12l0 0c3,3 8,6 12,7 8,1 18,2 29,4 48,6 117,15 171,56 15,12 29,35 43,64 12,28 25,61 36,92 4,13 9,26 13,40 16,46 31,89 46,112 49,75 102,77 178,79 20,1 43,1 66,3 15,1 43,7 67,20 12,7 24,16 32,28 19,-35 46,-41 74,-48l6 -2 0 0c17,-4 32,-7 47,-10 26,-5 50,-9 77,-21 37,-17 56,-53 70,-81l4 -7 0 0c14,-26 21,-52 30,-81l0 -1c11,-38 24,-83 55,-146 7,-14 32,-34 60,-52 44,-28 99,-56 119,-65 18,-7 28,-18 33,-29l0 0c3,-5 4,-11 3,-16 -1,-5 -2,-10 -5,-14l0 0c-3,-4 -7,-6 -12,-8 -23,22 -55,39 -81,53 -8,4 -15,8 -21,11 -19,11 -44,28 -66,45 -20,15 -38,31 -48,43l0 0c-19,23 -27,47 -38,81 -10,29 -21,65 -43,111 -10,21 -24,46 -41,69 -14,18 -30,34 -47,45 -33,22 -72,33 -114,39l-4 0z"/>
  </g>
 </g>
</svg>
