<?xml version="1.0" encoding="UTF-8"?>
<!DOCTYPE svg PUBLIC "-//W3C//DTD SVG 1.1//EN" "http://www.w3.org/Graphics/SVG/1.1/DTD/svg11.dtd">
<!-- Creator: CorelDRAW X7 -->
<svg xmlns="http://www.w3.org/2000/svg" xml:space="preserve" width="62.7009mm" height="19.8987mm" version="1.1" style="shape-rendering:geometricPrecision; text-rendering:geometricPrecision; image-rendering:optimizeQuality; fill-rule:evenodd; clip-rule:evenodd"
viewBox="0 0 5071 1609"
 xmlns:xlink="http://www.w3.org/1999/xlink">
 <defs>
  <style type="text/css">
   <![CDATA[
    .fil0 {fill:#BDBFC1}
   ]]>
  </style>
 </defs>
 <g id="Camada_x0020_1">
  <metadata id="CorelCorpID_0Corel-Layer"/>
  <path class="fil0" d="M840 187l113 -112 0 317 0 318 319 -319 320 319 -248 248 -2 3 -70 69 0 0 -112 112 -113 113 0 -25 0 25 0 -1 0 1 -177 177 -178 177 0 -354 0 -355 1 1 -263 -264 -1 1 -113 -113 -112 -113 112 -112 113 -113 205 0 206 0 0 0zm2757 93l45 0 -48 -147 -47 0 -49 147 46 0 5 -19 43 0 5 19zm-39 -52l12 -46 12 46 -24 0zm-208 -95l-21 0 -45 0 0 147 13 0 53 0c41,0 72,-32 72,-74 0,-41 -31,-73 -72,-73zm0 106l-21 0 0 -66 21 0c17,0 29,14 29,33 0,20 -12,33 -29,33zm-373 0l0 -106 -42 0 0 147 13 0 76 0 0 -41 -47 0zm-177 41l46 0 -48 -147 -48 0 -48 147 46 0 5 -19 42 0 5 19zm-38 -52l12 -46 12 46 -24 0zm-129 -95l-31 0 -73 0 0 40 31 0 0 107 42 0 0 -107 31 0 0 -40zm-220 147l47 0 -38 -55c14,-8 23,-23 23,-41 0,-32 -24,-52 -56,-52l-15 0 -42 0 0 148 42 0 0 -46 8 0 31 46zm-24 -109c9,0 14,5 14,13 0,9 -5,13 -14,13l-15 0 0 -26 15 0zm-232 113c44,0 78,-34 78,-78 0,-43 -34,-77 -78,-77 -44,0 -78,34 -78,77 0,44 34,78 78,78zm0 -42c-21,0 -36,-15 -36,-36 0,-20 15,-35 36,-35 21,0 36,15 36,35 0,21 -15,36 -36,36zm-224 -109l-17 0 -42 0 0 147 42 0 0 -41 17 0c30,0 54,-21 54,-53 0,-33 -24,-53 -54,-53zm0 65l-17 0 0 -25 17 0c6,0 12,5 12,13 0,7 -6,12 -12,12zm2920 223c0,-30 10,-54 29,-71 19,-17 46,-26 80,-26 16,0 31,2 44,7 14,4 25,11 35,19 10,9 17,19 22,31 5,12 8,25 8,40l0 616c0,30 -10,54 -29,71 -19,17 -46,26 -80,26 -17,0 -32,-2 -45,-7 -13,-4 -24,-11 -34,-19 -9,-9 -17,-19 -22,-31 -5,-12 -8,-25 -8,-40l0 -616zm-2873 -88c33,0 60,9 79,26 20,18 30,42 30,71l0 598c0,30 -10,54 -29,71 -19,17 -46,26 -80,26l-97 0c-4,0 -7,-1 -9,-3 -2,-3 -3,-6 -3,-9l0 -768c0,-3 1,-6 3,-9 2,-2 5,-3 9,-3l97 0zm33 97c0,-9 -3,-18 -8,-24 -5,-6 -13,-10 -25,-10l-33 0 0 666 33 0c11,0 20,-4 25,-10 5,-6 8,-15 8,-24l0 -598zm292 -97c4,0 7,1 9,3 2,2 3,5 3,8l0 20c0,9 -2,17 -8,23 -5,6 -12,9 -21,9l-69 0 0 305 75 0c3,0 6,1 9,3 2,1 3,4 3,8l0 19c0,10 -3,18 -8,24 -5,6 -12,9 -21,9l-58 0 0 298 69 0c9,0 16,3 21,9 6,6 8,14 8,23l0 20c0,3 -1,6 -3,8 -2,2 -5,3 -9,3l-151 0c-3,0 -6,-1 -8,-3 -2,-3 -3,-6 -3,-9l0 -768c0,-3 1,-6 3,-9 2,-2 5,-3 8,-3l151 0zm225 274c-11,0 -19,-3 -25,-10 -5,-6 -8,-14 -8,-24l0 -152c0,-10 -2,-18 -8,-24 -5,-6 -14,-10 -25,-10 -11,0 -19,3 -25,10 -5,6 -7,14 -7,24 0,35 2,66 6,93 4,28 9,53 16,76 6,24 14,46 23,67 8,20 17,41 25,61 9,21 18,42 26,64 9,21 16,44 23,70 7,25 12,53 16,83 4,30 6,64 6,102 0,15 -2,28 -8,40 -5,12 -12,22 -22,31 -9,8 -21,15 -34,19 -14,5 -28,7 -45,7 -34,0 -61,-9 -80,-26 -19,-17 -28,-41 -28,-71l0 -174c0,-3 1,-6 3,-8 1,-3 4,-4 8,-4l32 0c11,0 19,3 24,10 6,6 9,14 9,24l0 152c0,10 2,18 8,24 5,6 13,10 24,10 12,0 20,-4 25,-10 6,-6 8,-14 8,-24 0,-49 -3,-91 -10,-127 -7,-36 -16,-69 -27,-99 -10,-29 -21,-57 -34,-84 -12,-27 -23,-55 -33,-84 -11,-29 -20,-62 -27,-97 -7,-36 -10,-77 -10,-125 0,-15 2,-28 7,-40 6,-12 13,-22 23,-31 9,-8 20,-15 34,-19 13,-5 28,-7 44,-7 35,0 61,9 81,26 19,17 28,41 28,71l0 174c0,3 -1,6 -3,8 -2,3 -5,4 -8,4l-32 0zm260 -274c3,0 6,1 8,3 2,2 4,5 4,8l0 20c0,9 -3,17 -8,23 -6,6 -13,9 -21,9l-70 0 0 305 75 0c4,0 7,1 9,3 2,1 3,4 3,8l0 19c0,10 -2,18 -8,24 -5,6 -12,9 -21,9l-58 0 0 298 70 0c8,0 15,3 21,9 5,6 8,14 8,23l0 20c0,3 -2,6 -4,8 -2,2 -5,3 -8,3l-151 0c-4,0 -7,-1 -9,-3 -2,-3 -3,-6 -3,-9l0 -768c0,-3 1,-6 3,-9 2,-2 5,-3 9,-3l151 0zm160 0c16,0 31,2 44,7 13,5 24,11 34,20 9,8 17,18 22,30 5,12 7,26 7,40l0 268c0,17 -3,31 -9,41 -7,11 -16,19 -28,26 12,6 21,14 28,25 6,10 9,23 9,40l0 283c0,3 -1,6 -2,9 -2,2 -5,3 -9,3l-32 0c-11,0 -19,-3 -24,-9 -6,-7 -8,-15 -8,-24l0 -262c0,-10 -3,-19 -8,-25 -5,-6 -14,-9 -25,-9l-33 0 0 296c0,9 -3,17 -8,24 -6,6 -14,9 -25,9l-32 0c-3,0 -6,-1 -8,-3 -2,-3 -3,-6 -3,-9l0 -768c0,-3 1,-6 3,-9 2,-2 5,-3 8,-3l99 0zm-34 63l0 336 33 0c11,0 19,-3 25,-9 5,-7 8,-15 8,-25l0 -268c0,-9 -3,-18 -9,-24 -5,-6 -13,-10 -24,-10l-33 0zm372 -63c4,0 6,1 9,3 2,2 3,5 3,8l0 20c0,9 -3,17 -8,23 -5,6 -12,9 -21,9l-35 0 0 709c0,5 -2,10 -6,14 -4,4 -9,6 -14,6l-35 0c-6,0 -11,-2 -15,-6 -4,-4 -6,-9 -6,-14l0 -709 -35 0c-8,0 -15,-3 -21,-9 -5,-6 -8,-14 -8,-23l0 -20c0,-3 2,-6 4,-8 2,-2 5,-3 8,-3l180 0zm50 29c0,-9 3,-16 9,-21 6,-5 14,-8 24,-8l32 0c3,0 6,1 8,3 2,3 3,6 3,9l0 760c0,5 -2,10 -6,14 -4,4 -9,6 -15,6l-35 0c-5,0 -10,-2 -14,-6 -4,-4 -6,-9 -6,-14l0 -743zm293 -29c3,0 6,1 8,3 2,2 3,5 3,8l0 20c0,9 -2,17 -7,23 -6,6 -13,9 -21,9l-70 0 0 305 75 0c4,0 6,1 9,3 2,1 3,4 3,8l0 19c0,10 -3,18 -8,24 -5,6 -12,9 -21,9l-58 0 0 328c0,9 -3,17 -8,24 -6,6 -14,9 -25,9l-31 0c-4,0 -7,-1 -9,-3 -2,-3 -3,-6 -3,-9l0 -768c0,-3 1,-6 3,-9 2,-2 5,-3 9,-3l151 0zm50 29c0,-9 3,-16 9,-21 6,-5 14,-8 24,-8l31 0c4,0 7,1 9,3 2,3 3,6 3,9l0 760c0,5 -2,10 -6,14 -4,4 -9,6 -15,6l-35 0c-5,0 -10,-2 -14,-6 -4,-4 -6,-9 -6,-14l0 -743zm272 450c0,-10 2,-18 7,-24 6,-6 14,-9 24,-10l33 0c4,0 7,1 9,4 1,2 2,5 2,8l0 247c0,30 -9,54 -28,71 -19,17 -46,26 -80,26 -17,0 -32,-2 -45,-7 -13,-4 -24,-11 -34,-19 -10,-9 -17,-19 -22,-31 -5,-12 -8,-25 -8,-40l0 -616c0,-30 10,-54 29,-71 19,-17 45,-26 80,-26 16,0 31,2 44,7 14,4 25,11 35,19 9,9 17,19 22,31 5,12 7,25 7,40l0 254c0,3 -1,6 -2,8 -2,2 -5,4 -9,4l-32 0c-11,0 -19,-4 -24,-10 -6,-6 -8,-14 -8,-24l0 -232c0,-10 -3,-18 -8,-24 -6,-7 -14,-10 -25,-10 -11,0 -19,3 -25,10 -5,6 -8,14 -8,24l0 616c0,10 3,18 8,24 5,6 13,10 25,10 11,0 19,-4 24,-10 6,-6 9,-14 9,-24l0 -225zm260 -479c4,0 6,1 8,3 2,3 3,5 4,8l68 767c0,3 -1,6 -3,9 -3,3 -7,5 -12,5l-28 0c-9,0 -17,-3 -23,-8 -6,-6 -10,-12 -11,-20l-6 -108 -58 0 -7 108c0,8 -4,14 -10,20 -6,5 -14,8 -23,8l-28 0c-5,0 -9,-2 -12,-5 -2,-3 -3,-6 -3,-9l68 -767c0,-3 2,-5 3,-8 2,-2 5,-3 8,-3l65 0zm-58 592l51 0 -26 -423 -25 423zm319 -113c0,-10 2,-18 8,-24 5,-6 13,-9 23,-10l33 0c4,0 7,1 9,4 2,2 2,5 2,8l0 247c0,30 -9,54 -28,71 -12,11 -28,19 -46,23l0 27c0,4 -1,6 -3,9 -2,2 -5,3 -9,3l-25 0c-9,0 -18,-3 -24,-8 -7,-5 -10,-12 -8,-21l1 -11c-4,-1 -7,-2 -11,-3 -13,-4 -24,-11 -34,-19 -10,-9 -17,-19 -22,-31 -5,-12 -8,-25 -8,-40l0 -616c0,-30 10,-54 29,-71 19,-17 46,-26 80,-26 16,0 31,2 44,7 14,4 25,11 35,19 9,9 17,19 22,31 5,12 7,25 7,40l0 254c0,3 0,6 -2,8 -2,2 -5,4 -9,4l-32 0c-10,0 -19,-4 -24,-10 -6,-6 -8,-14 -8,-24l0 -232c0,-10 -3,-18 -8,-24 -6,-7 -14,-10 -25,-10 -11,0 -19,3 -25,10 -5,6 -8,14 -8,24l0 616c0,10 3,18 8,24 5,6 14,10 25,10 11,0 19,-4 25,-10 5,-6 8,-14 8,-24l0 -225zm260 -479c4,0 7,1 8,3 2,3 3,5 4,8l68 767c0,3 -1,6 -3,9 -3,3 -7,5 -12,5l-28 0c-9,0 -17,-3 -23,-8 -6,-6 -10,-12 -11,-20l-6 -108 -58 0 -6 108c-1,8 -5,14 -11,20 -6,5 -14,8 -23,8l-28 0c-5,0 -9,-2 -12,-5 -2,-3 -3,-6 -3,-9l68 -767c0,-3 2,-5 4,-8 1,-2 4,-3 7,-3l65 0zm-58 592l51 0 -26 -423 -25 423zm55 -611c-5,0 -9,0 -13,2 -4,2 -8,4 -12,6 -4,2 -8,4 -13,5 -4,2 -9,3 -14,3 -6,0 -12,-1 -17,-2 -6,-2 -11,-4 -15,-7 -5,-3 -8,-7 -11,-12 -3,-5 -5,-11 -5,-18l0 -12c0,-4 1,-6 3,-8 2,-2 5,-2 8,-2 3,0 6,0 8,1 2,1 4,2 7,3 2,1 4,2 7,3 2,1 5,2 9,2 5,0 10,-1 14,-3 3,-1 7,-3 11,-5 4,-3 8,-4 12,-6 5,-2 10,-2 16,-2 5,0 11,0 17,2 5,1 11,3 15,6 4,3 8,7 11,12 3,5 4,11 4,19l0 12c0,3 -1,5 -3,7 -2,2 -4,3 -7,3 -4,0 -6,-1 -9,-2 -2,-1 -4,-2 -6,-3 -2,-1 -4,-2 -7,-3 -2,-1 -6,-1 -10,-1zm264 107c0,-10 -3,-18 -8,-24 -5,-7 -14,-10 -25,-10 -11,0 -19,3 -25,10 -5,6 -8,14 -8,24l0 616c0,10 3,18 8,24 5,6 14,10 25,10 11,0 19,-4 25,-10 5,-6 8,-14 8,-24l0 -616zm33 872c24,0 43,-19 43,-43 0,-25 -19,-43 -43,-43 -24,0 -43,18 -43,43 0,24 19,43 43,43zm0 -14c-16,0 -29,-13 -29,-29 0,-17 13,-29 29,-29 16,0 29,12 29,29 0,16 -13,29 -29,29zm-73 -58l0 -12 -14 0 0 82 14 0 0 -44c0,-19 12,-25 25,-25l0 -15c-10,0 -19,4 -25,14zm-51 -27l15 0 0 -18 -15 0 0 18zm0 97l15 0 0 -82 -15 0 0 82zm-83 -35l67 0c1,-2 1,-4 1,-6 0,-23 -16,-43 -41,-43 -25,0 -42,18 -42,43 0,24 17,43 43,43 18,0 32,-10 37,-25l-15 0c-3,7 -12,12 -22,12 -15,0 -26,-8 -28,-24zm0 -12c2,-14 12,-24 27,-24 13,0 24,8 26,24l-53 0zm-47 47l15 0 0 -118 -15 0 0 118zm-36 -97l14 0 0 -18 -14 0 0 18zm0 97l14 0 0 -82 -14 0 0 82zm-65 -60c0,-8 8,-11 16,-11 8,0 15,3 15,13l15 0c0,-17 -14,-26 -30,-26 -17,0 -30,9 -30,24 0,31 47,19 47,38 0,7 -8,11 -17,11 -10,0 -17,-4 -17,-14l-14 0c0,17 13,27 31,27 18,0 31,-10 31,-24 0,-32 -47,-19 -47,-38zm-63 -24c-19,0 -32,11 -32,28l14 0c0,-10 8,-15 18,-15 9,0 17,5 17,18l0 12c-5,-6 -14,-10 -24,-10 -15,0 -29,9 -29,27 0,17 14,26 29,26 10,0 19,-3 24,-11l0 9 15 0 0 -53c0,-20 -14,-31 -32,-31zm-3 74c-13,0 -19,-6 -19,-14 0,-8 6,-15 19,-15 12,0 20,6 20,15 0,8 -8,14 -20,14zm-65 -60l0 -12 -14 0 0 82 14 0 0 -44c0,-19 12,-25 25,-25l0 -15c-10,0 -19,4 -25,14zm-73 -14c-14,0 -25,6 -31,16l0 -47 -14 0 0 115 14 0 0 -14c6,10 17,16 31,16 23,0 42,-19 42,-43 0,-25 -19,-43 -42,-43zm-2 72c-17,0 -29,-12 -29,-29 0,-17 12,-30 29,-30 17,0 29,13 29,30 0,17 -12,29 -29,29zm-145 14c24,0 43,-19 43,-43 0,-25 -19,-43 -43,-43 -24,0 -43,18 -43,43 0,24 19,43 43,43zm0 -14c-16,0 -29,-13 -29,-29 0,-17 13,-29 29,-29 16,0 29,12 29,29 0,16 -13,29 -29,29zm-75 -103l0 47c-6,-10 -17,-16 -31,-16 -22,0 -41,18 -41,43 0,24 19,43 41,43 14,0 25,-6 31,-16l0 14 15 0 0 -115 -15 0zm-29 103c-16,0 -29,-12 -29,-29 0,-17 13,-30 29,-30 17,0 29,13 29,30 0,17 -12,29 -29,29zm-75 -85l14 0 0 -18 -14 0 0 18zm0 97l14 0 0 -82 -14 0 0 82zm-39 -70l0 -12 -14 0 0 82 14 0 0 -44c0,-19 13,-25 25,-25l0 -15c-10,0 -19,4 -25,14zm-45 -46l-17 0 -13 22 14 0 16 -22zm-21 32c-18,0 -32,11 -32,28l15 0c0,-10 8,-15 17,-15 10,0 18,5 18,18l0 12c-5,-6 -14,-10 -24,-10 -15,0 -29,9 -29,27 0,17 14,26 29,26 10,0 19,-3 24,-11l0 9 14 0 0 -53c0,-20 -13,-31 -32,-31zm-2 74c-13,0 -19,-6 -19,-14 0,-8 6,-15 19,-15 12,0 20,6 20,15 0,8 -8,14 -20,14zm-65 -87l15 0 0 -18 -15 0 0 18zm0 97l15 0 0 -82 -15 0 0 82zm-45 -84c-10,0 -18,3 -24,13 -4,-9 -13,-13 -21,-13 -8,0 -16,3 -22,11l0 -9 -14 0 0 82 14 0 0 -50c0,-16 10,-21 18,-21 8,0 14,5 14,16l0 55 15 0 0 -50c0,-16 10,-21 17,-21 8,0 14,5 14,16l0 55 15 0 0 -56c0,-18 -12,-28 -26,-28zm-165 49l68 0c0,-2 0,-4 0,-6 0,-23 -15,-43 -40,-43 -25,0 -42,18 -42,43 0,24 17,43 42,43 19,0 33,-10 38,-25l-15 0c-4,7 -12,12 -22,12 -15,0 -26,-8 -29,-24zm0 -12c3,-14 13,-24 28,-24 12,0 24,8 26,24l-54 0zm-73 -13c0,-8 8,-11 16,-11 8,0 15,3 15,13l14 0c0,-17 -13,-26 -29,-26 -17,0 -30,9 -30,24 0,31 47,19 47,38 0,7 -8,11 -17,11 -10,0 -17,-4 -17,-14l-15 0c0,17 14,27 32,27 18,0 31,-10 31,-24 0,-32 -47,-19 -47,-38zm-113 62c24,0 43,-19 43,-43 0,-25 -19,-43 -43,-43 -24,0 -44,18 -44,43 0,24 20,43 44,43zm0 -14c-17,0 -29,-13 -29,-29 0,-17 12,-29 29,-29 16,0 29,12 29,29 0,16 -13,29 -29,29zm-75 -103l0 47c-7,-10 -17,-16 -31,-16 -23,0 -42,18 -42,43 0,24 19,43 42,43 14,0 24,-6 31,-16l0 14 14 0 0 -115 -14 0zm-29 103c-17,0 -29,-12 -29,-29 0,-17 12,-30 29,-30 16,0 29,13 29,30 0,17 -13,29 -29,29zm-145 -48c0,-8 7,-11 16,-11 7,0 15,3 15,13l14 0c0,-17 -13,-26 -29,-26 -17,0 -30,9 -30,24 0,31 47,19 47,38 0,7 -8,11 -17,11 -10,0 -18,-4 -18,-14l-14 0c0,17 13,27 32,27 18,0 31,-10 31,-24 0,-32 -47,-19 -47,-38zm-96 25l68 0c0,-2 0,-4 0,-6 0,-23 -15,-43 -40,-43 -26,0 -42,18 -42,43 0,24 16,43 42,43 19,0 33,-10 38,-25l-15 0c-4,7 -12,12 -23,12 -14,0 -25,-8 -28,-24zm0 -12c2,-14 13,-24 28,-24 12,0 24,8 26,24l-54 0zm-44 -23l0 -12 -15 0 0 82 15 0 0 -44c0,-19 12,-25 25,-25l0 -15c-10,0 -19,4 -25,14zm-75 72c24,0 44,-19 44,-43 0,-25 -20,-43 -44,-43 -24,0 -43,18 -43,43 0,24 19,43 43,43zm0 -14c-16,0 -29,-13 -29,-29 0,-17 13,-29 29,-29 17,0 29,12 29,29 0,16 -12,29 -29,29zm-75 -103l0 47c-6,-10 -17,-16 -31,-16 -22,0 -41,18 -41,43 0,24 19,43 41,43 14,0 25,-6 31,-16l0 14 15 0 0 -115 -15 0zm-29 103c-16,0 -29,-12 -29,-29 0,-17 13,-30 29,-30 17,0 29,13 29,30 0,17 -12,29 -29,29zm-90 -72c-19,0 -32,11 -32,28l14 0c0,-10 8,-15 18,-15 9,0 18,5 18,18l0 12c-6,-6 -14,-10 -25,-10 -15,0 -29,9 -29,27 0,17 14,26 29,26 11,0 19,-3 25,-11l0 9 14 0 0 -53c0,-20 -14,-31 -32,-31zm-3 74c-13,0 -18,-6 -18,-14 0,-8 5,-15 18,-15 12,0 21,6 21,15 0,8 -9,14 -21,14zm-43 -18l-15 0c-3,10 -13,16 -25,16 -16,0 -29,-13 -29,-29 0,-17 13,-29 29,-29 12,0 21,6 25,15l15 0c-4,-17 -20,-29 -40,-29 -24,0 -43,18 -43,43 0,24 19,43 43,43 20,0 36,-12 40,-30zm-114 -69l14 0 0 -18 -14 0 0 18zm0 97l14 0 0 -82 -14 0 0 82zm-36 -115l0 47c-7,-10 -18,-16 -32,-16 -22,0 -41,18 -41,43 0,24 19,43 41,43 14,0 25,-6 32,-16l0 14 14 0 0 -115 -14 0zm-30 103c-16,0 -29,-12 -29,-29 0,-17 13,-30 29,-30 17,0 30,13 30,30 0,17 -13,29 -30,29zm-86 -72c-10,0 -18,3 -24,12l0 -10 -15 0 0 82 15 0 0 -47c0,-18 10,-24 20,-24 10,0 17,6 17,18l0 53 15 0 0 -54c0,-19 -13,-30 -28,-30zm-75 -13l15 0 0 -18 -15 0 0 18zm0 97l15 0 0 -82 -15 0 0 82zm-125 -35l68 0c0,-2 1,-4 1,-6 0,-23 -16,-43 -41,-43 -25,0 -42,18 -42,43 0,24 17,43 42,43 19,0 33,-10 38,-25l-15 0c-4,7 -12,12 -22,12 -15,0 -26,-8 -29,-24zm0 -12c3,-14 13,-24 28,-24 12,0 24,8 26,24l-54 0zm-116 -13c0,-8 8,-11 16,-11 8,0 15,3 15,13l15 0c0,-17 -14,-26 -30,-26 -17,0 -30,9 -30,24 0,31 47,19 47,38 0,7 -8,11 -17,11 -10,0 -17,-4 -17,-14l-14 0c0,17 13,27 31,27 18,0 31,-10 31,-24 0,-32 -47,-19 -47,-38zm-71 62c24,0 43,-19 43,-43 0,-25 -19,-43 -43,-43 -24,0 -43,18 -43,43 0,24 19,43 43,43zm0 -14c-16,0 -29,-13 -29,-29 0,-17 13,-29 29,-29 16,0 29,12 29,29 0,16 -13,29 -29,29zm-75 -103l0 47c-6,-10 -17,-16 -31,-16 -23,0 -42,18 -42,43 0,24 19,43 42,43 14,0 25,-6 31,-16l0 14 14 0 0 -115 -14 0zm-29 103c-17,0 -29,-12 -29,-29 0,-17 12,-30 29,-30 16,0 29,13 29,30 0,17 -13,29 -29,29zm-91 -72c-18,0 -32,11 -32,28l14 0c0,-10 9,-15 18,-15 10,0 18,5 18,18l0 12c-5,-6 -14,-10 -24,-10 -15,0 -29,9 -29,27 0,17 14,26 29,26 10,0 19,-3 24,-11l0 9 14 0 0 -53c0,-20 -13,-31 -32,-31zm-2 74c-13,0 -19,-6 -19,-14 0,-8 6,-15 19,-15 12,0 20,6 20,15 0,8 -8,14 -20,14zm-98 -105l-33 0 -16 0 0 115 6 0 43 0c31,0 54,-26 54,-58 0,-32 -23,-57 -54,-57zm0 100l-33 0 0 -86 33 0c23,0 40,19 40,43 0,25 -17,43 -40,43zm-1782 -779l-71 0 -70 0 70 70 71 71 0 -71 0 -70zm60 319l160 0 160 -1 -160 -159 -159 -160 0 160 -1 160zm415 -816l-68 67 -67 68 135 0 134 0 -67 -68 -67 -67zm613 352l-109 -108 -108 -108 0 216 0 217 108 -108 109 -109zm-182 453l1 1 -95 -96 -1 0 95 95z"/>
 </g>
</svg>
